<svg width="1200" height="630" viewBox="0 0 1200 630" fill="none" xmlns="http://www.w3.org/2000/svg">
  <rect width="1200" height="630" fill="#040B15"/>
  <rect width="1200" height="630" fill="url(#bgGlow)"/>
  <rect x="78" y="75" width="240" height="240" rx="54" fill="#07111F"/>
  <rect x="96" y="93" width="204" height="204" rx="42" stroke="url(#frame)" stroke-width="5"/>
  <path d="M148 132V258" stroke="url(#metal)" stroke-width="16" stroke-linecap="round"/>
  <path d="M148 132H209C231.091 132 249 149.909 249 172C249 194.091 231.091 212 209 212H148" stroke="url(#green)" stroke-width="16" stroke-linecap="round"/>
  <path d="M148 212H204" stroke="url(#green)" stroke-width="16" stroke-linecap="round"/>
  <path d="M148 212L227 258" stroke="url(#green)" stroke-width="16" stroke-linecap="round"/>
  <text x="360" y="220" fill="#F3F7FF" font-size="58" font-family="Segoe UI, Arial, sans-serif" font-weight="700">FAHEEM Engineering Consultancy</text>
  <text x="360" y="286" fill="#A6B7CC" font-size="34" font-family="Segoe UI, Arial, sans-serif">Quality. Asset Integrity. Practical Engineering Solutions.</text>
  <defs>
    <radialGradient id="bgGlow" cx="0" cy="0" r="1" gradientUnits="userSpaceOnUse" gradientTransform="translate(980 120) rotate(145) scale(760 560)">
      <stop stop-color="#0F4E33" stop-opacity="0.34"/>
      <stop offset="1" stop-color="#040B15" stop-opacity="0"/>
    </radialGradient>
    <linearGradient id="frame" x1="108" y1="110" x2="280" y2="276" gradientUnits="userSpaceOnUse">
      <stop stop-color="#A9B2C2"/>
      <stop offset="0.52" stop-color="#E8EDF5"/>
      <stop offset="1" stop-color="#8F98A8"/>
    </linearGradient>
    <linearGradient id="metal" x1="148" y1="132" x2="148" y2="258" gradientUnits="userSpaceOnUse">
      <stop stop-color="#EEF3FA"/>
      <stop offset="0.5" stop-color="#BBC3D1"/>
      <stop offset="1" stop-color="#F7FAFF"/>
    </linearGradient>
    <linearGradient id="green" x1="140" y1="124" x2="244" y2="250" gradientUnits="userSpaceOnUse">
      <stop stop-color="#9AF0C1"/>
      <stop offset="0.48" stop-color="#28BC6E"/>
      <stop offset="1" stop-color="#0E7B45"/>
    </linearGradient>
  </defs>
</svg>
